<?xml version="1.0" encoding="UTF-8"?>
<!DOCTYPE svg PUBLIC "-//W3C//DTD SVG 1.1//EN" "http://www.w3.org/Graphics/SVG/1.1/DTD/svg11.dtd">
<svg xmlns="http://www.w3.org/2000/svg" version="1.1" width="500px" height="500px" style="shape-rendering:geometricPrecision; text-rendering:geometricPrecision; image-rendering:optimizeQuality; fill-rule:evenodd; clip-rule:evenodd" xmlns:xlink="http://www.w3.org/1999/xlink">
<g><path style="opacity:1" fill="#fbfcfc" d="M -0.5,-0.5 C 166.167,-0.5 332.833,-0.5 499.5,-0.5C 499.5,166.167 499.5,332.833 499.5,499.5C 332.833,499.5 166.167,499.5 -0.5,499.5C -0.5,332.833 -0.5,166.167 -0.5,-0.5 Z"/></g>
<g><path style="opacity:1" fill="#536674" d="M 197.5,32.5 C 198.492,40.3159 198.826,48.3159 198.5,56.5C 205.022,56.1765 211.355,56.5098 217.5,57.5C 210.833,57.5 204.167,57.5 197.5,57.5C 197.5,49.1667 197.5,40.8333 197.5,32.5 Z"/></g>
<g><path style="opacity:1" fill="#496374" d="M 176.5,38.5 C 176.56,37.9569 176.893,37.6236 177.5,37.5C 178.822,46.6582 178.822,55.6582 177.5,64.5C 177.826,55.6506 177.493,46.9839 176.5,38.5 Z"/></g>
<g><path style="opacity:1" fill="#032238" d="M 176.5,38.5 C 177.493,46.9839 177.826,55.6506 177.5,64.5C 177.256,67.2626 175.923,69.4293 173.5,71C 159.681,74.8597 153.347,69.5263 154.5,55C 154.522,51.9136 154.855,48.9136 155.5,46C 162.497,43.3906 169.497,40.8906 176.5,38.5 Z"/></g>
<g><path style="opacity:1" fill="#05243e" d="M 202.5,80.5 C 217.096,79.3573 224.262,86.024 224,100.5C 216.783,115.192 207.116,117.192 195,106.5C 188.518,95.1534 191.018,86.4867 202.5,80.5 Z"/></g>
<g><path style="opacity:1" fill="#8494a1" d="M 130.5,61.5 C 130.56,60.9569 130.893,60.6236 131.5,60.5C 132.498,70.1437 132.832,79.8104 132.5,89.5C 148.009,89.1705 163.342,89.5038 178.5,90.5C 162.833,90.5 147.167,90.5 131.5,90.5C 131.827,80.6522 131.494,70.9856 130.5,61.5 Z"/></g>
<g><path style="opacity:1" fill="#03223e" d="M 130.5,61.5 C 131.494,70.9856 131.827,80.6522 131.5,90.5C 147.167,90.5 162.833,90.5 178.5,90.5C 179.458,90.9528 180.292,91.6195 181,92.5C 181.667,97.1667 181.667,101.833 181,106.5C 179.961,107.71 178.794,108.71 177.5,109.5C 144.329,109.832 111.329,109.498 78.5,108.5C 83.5922,101.903 89.2589,95.7368 95.5,90C 101.491,89.5005 107.491,89.3338 113.5,89.5C 113.334,83.8236 113.501,78.1569 114,72.5C 119.271,68.451 124.771,64.7843 130.5,61.5 Z"/></g>
<g><path style="opacity:1" fill="#04233f" d="M 258.5,91.5 C 269.114,91.6135 273.947,96.9468 273,107.5C 271.833,110 270,111.833 267.5,113C 255.055,115.221 249.888,110.055 252,97.5C 253.494,94.6865 255.66,92.6865 258.5,91.5 Z"/></g>
<g><path style="opacity:1" fill="#002440" d="M 337.5,134.5 C 337.5,135.5 337.5,136.5 337.5,137.5C 342.794,137.682 342.794,138.182 337.5,139C 338.833,139.333 340.167,139.667 341.5,140C 341.167,140.333 340.833,140.667 340.5,141C 341.074,149.83 341.907,158.663 343,167.5C 345.737,166.39 348.571,166.223 351.5,167C 349.893,168.049 349.227,169.549 349.5,171.5C 354.833,171.833 354.833,172.167 349.5,172.5C 349.5,173.5 349.5,174.5 349.5,175.5C 350.833,175.5 352.167,175.5 353.5,175.5C 353.227,177.451 353.893,178.951 355.5,180C 354.062,180.219 352.729,180.719 351.5,181.5C 352.66,181.437 353.994,181.77 355.5,182.5C 358.123,192.891 358.789,203.558 357.5,214.5C 358.833,214.5 360.167,214.5 361.5,214.5C 362.206,193.022 362.872,169.022 363.5,142.5C 363.667,172.835 363.5,203.168 363,233.5C 361.319,237.679 358.485,240.679 354.5,242.5C 349.528,239.3 344.361,238.967 339,241.5C 336.974,240.981 334.974,240.647 333,240.5C 332.505,242.473 332.338,244.473 332.5,246.5C 330.409,246.318 328.409,246.652 326.5,247.5C 325.501,235.185 325.168,222.851 325.5,210.5C 317.699,210.294 317.699,209.628 325.5,208.5C 325.773,206.549 325.107,205.049 323.5,204C 325.072,201.962 326.072,199.629 326.5,197C 325.882,191.815 325.716,186.648 326,181.5C 328.381,182.435 330.881,182.768 333.5,182.5C 333.5,177.167 333.5,171.833 333.5,166.5C 326.621,167.288 323.954,164.121 325.5,157C 325.558,153.724 326.224,150.724 327.5,148C 325.395,146.665 324.729,144.998 325.5,143C 324.051,141.883 322.384,141.216 320.5,141C 321.34,139.334 320.84,139.167 319,140.5C 318.196,138.117 317.029,135.95 315.5,134C 316.771,130.16 317.437,126.16 317.5,122C 317,121.5 316.5,121 316,120.5C 315.751,121.624 315.251,122.624 314.5,123.5C 314.05,120.08 311.717,118.08 307.5,117.5C 306.833,117.833 306.167,118.167 305.5,118.5C 304.738,117.372 304.071,116.205 303.5,115C 304.659,113.173 305.992,111.507 307.5,110C 306.833,109.667 306.167,109.333 305.5,109C 307.101,108.727 308.601,108.227 310,107.5C 310.483,108.448 310.649,109.448 310.5,110.5C 312.467,110.739 314.301,110.406 316,109.5C 316.5,111.333 317.667,112.5 319.5,113C 318.5,113.333 317.5,113.667 316.5,114C 318.167,114.333 319.833,114.667 321.5,115C 321.003,117.22 320.336,119.72 319.5,122.5C 320.811,126.407 321.478,130.407 321.5,134.5C 326.833,134.5 332.167,134.5 337.5,134.5 Z"/></g>
<g><path style="opacity:1" fill="#c2d6eb" d="M 78.5,108.5 C 111.329,109.498 144.329,109.832 177.5,109.5C 144.331,110.83 110.998,110.83 77.5,109.5C 77.6236,108.893 77.9569,108.56 78.5,108.5 Z"/></g>
<g><path style="opacity:1" fill="#012643" d="M 418.5,107.5 C 429.738,121.083 439.405,135.75 447.5,151.5C 445.803,153.376 443.803,154.876 441.5,156C 442.624,156.249 443.624,156.749 444.5,157.5C 445.253,159.753 446.586,161.587 448.5,163C 447.366,164.016 447.699,164.683 449.5,165C 448.24,166.113 447.073,166.28 446,165.5C 443.2,166.125 440.366,166.792 437.5,167.5C 438.641,168.425 438.641,169.259 437.5,170C 432.167,170.667 426.833,170.667 421.5,170C 422.641,169.259 422.641,168.425 421.5,167.5C 419.119,165.478 416.453,165.145 413.5,166.5C 413.829,172.206 413.495,177.872 412.5,183.5C 410.054,184.983 410.388,186.149 413.5,187C 413.285,189.026 412.285,191.026 410.5,193C 410.645,193.772 410.978,194.439 411.5,195C 409.833,195.667 408.167,195.667 406.5,195C 406.702,192.232 406.702,189.399 406.5,186.5C 405.702,188.078 405.202,189.744 405,191.5C 402.667,190.833 400.333,190.167 398,189.5C 394.906,190.599 391.74,191.099 388.5,191C 389.748,177.95 389.748,164.616 388.5,151C 391.482,150.502 394.482,150.335 397.5,150.5C 397.5,147.833 397.5,145.167 397.5,142.5C 398.978,142.762 400.311,142.429 401.5,141.5C 400.359,140.575 400.359,139.741 401.5,139C 400.167,138.667 398.833,138.333 397.5,138C 397.579,131.711 397.579,125.211 397.5,118.5C 404.5,116.833 407.167,119.5 405.5,126.5C 411.229,126.212 416.896,126.546 422.5,127.5C 428.839,125.249 428.506,123.416 421.5,122C 423.037,120.89 423.703,119.39 423.5,117.5C 422.167,117.5 420.833,117.5 419.5,117.5C 418.948,115.669 418.948,114.003 419.5,112.5C 418.965,110.729 418.131,110.396 417,111.5C 416.156,109.537 416.656,108.204 418.5,107.5 Z"/></g>
<g><path style="opacity:1" fill="#04233b" d="M 235.5,119.5 C 245.337,118.511 250.17,122.844 250,132.5C 246.225,140.535 240.392,142.368 232.5,138C 227.703,130.733 228.703,124.567 235.5,119.5 Z"/></g>
<g><path style="opacity:1" fill="#03233a" d="M 154.5,126.5 C 167.982,125.327 175.982,131.327 178.5,144.5C 175.699,159.121 167.032,164.621 152.5,161C 141.747,154.849 138.914,146.015 144,134.5C 146.94,130.963 150.44,128.297 154.5,126.5 Z"/></g>
<g><path style="opacity:1" fill="#052641" d="M 112.5,186.5 C 110.875,185.675 109.208,186.008 107.5,187.5C 106.154,191.519 105.654,195.519 106,199.5C 105.147,197.875 104.147,197.542 103,198.5C 102.193,194.551 101.693,194.551 101.5,198.5C 100.167,198.5 98.8333,198.5 97.5,198.5C 97.5,195.167 97.5,191.833 97.5,188.5C 101.812,188.385 102.146,188.051 98.5,187.5C 97.0055,187.709 95.8388,188.376 95,189.5C 94.2904,188.027 93.1238,187.36 91.5,187.5C 91.5,228.167 91.5,268.833 91.5,309.5C 91.5,309.833 91.5,310.167 91.5,310.5C 90.6674,269.669 90.1674,228.669 90,187.5C 83.8488,184.848 79.3488,180.515 76.5,174.5C 65.5202,173.501 54.5202,173.168 43.5,173.5C 44.1475,166.867 46.4808,160.867 50.5,155.5C 58.5,154.833 66.5,154.167 74.5,153.5C 83.6221,135.275 97.2888,130.775 115.5,140C 126.997,149.812 129.83,161.646 124,175.5C 120.956,180.045 117.123,183.711 112.5,186.5 Z"/></g>
<g><path style="opacity:1" fill="#f6f9fa" d="M 97.5,151.5 C 108.199,152.019 112.032,157.353 109,167.5C 101.774,174.682 95.4406,174.016 90,165.5C 88.5947,158.639 91.0947,153.973 97.5,151.5 Z"/></g>
<g><path style="opacity:1" fill="#ecf2f5" d="M 364.5,106.5 C 365.167,106.833 365.833,107.167 366.5,107.5C 367.268,148.824 367.768,190.158 368,231.5C 368.23,234.968 369.73,237.634 372.5,239.5C 373.453,241.61 375.119,242.777 377.5,243C 384.826,243.5 392.159,243.666 399.5,243.5C 399.5,244.833 399.5,246.167 399.5,247.5C 391.826,247.334 384.159,247.5 376.5,248C 373.333,249.833 370.833,252.333 369,255.5C 367.554,269.093 367.054,282.76 367.5,296.5C 366.167,296.5 364.833,296.5 363.5,296.5C 363.667,283.496 363.5,270.496 363,257.5C 361.262,253.759 358.762,250.592 355.5,248C 349.175,247.5 342.842,247.334 336.5,247.5C 336.33,246.178 336.663,245.011 337.5,244C 343.348,243.827 349.015,243.327 354.5,242.5C 358.485,240.679 361.319,237.679 363,233.5C 363.5,203.168 363.667,172.835 363.5,142.5C 364.495,130.678 364.828,118.678 364.5,106.5 Z"/></g>
<g><path style="opacity:1" fill="#01243f" d="M 418.5,107.5 C 416.656,108.204 416.156,109.537 417,111.5C 418.131,110.396 418.965,110.729 419.5,112.5C 418.948,114.003 418.948,115.669 419.5,117.5C 420.833,117.5 422.167,117.5 423.5,117.5C 423.703,119.39 423.037,120.89 421.5,122C 428.506,123.416 428.839,125.249 422.5,127.5C 416.896,126.546 411.229,126.212 405.5,126.5C 407.167,119.5 404.5,116.833 397.5,118.5C 397.579,125.211 397.579,131.711 397.5,138C 398.833,138.333 400.167,138.667 401.5,139C 400.359,139.741 400.359,140.575 401.5,141.5C 400.311,142.429 398.978,142.762 397.5,142.5C 397.5,145.167 397.5,147.833 397.5,150.5C 394.482,150.335 391.482,150.502 388.5,151C 389.748,164.616 389.748,177.95 388.5,191C 391.74,191.099 394.906,190.599 398,189.5C 400.333,190.167 402.667,190.833 405,191.5C 405.202,189.744 405.702,188.078 406.5,186.5C 406.702,189.399 406.702,192.232 406.5,195C 408.167,195.667 409.833,195.667 411.5,195C 410.978,194.439 410.645,193.772 410.5,193C 412.285,191.026 413.285,189.026 413.5,187C 410.388,186.149 410.054,184.983 412.5,183.5C 413.495,177.872 413.829,172.206 413.5,166.5C 416.453,165.145 419.119,165.478 421.5,167.5C 422.641,168.425 422.641,169.259 421.5,170C 426.833,170.667 432.167,170.667 437.5,170C 438.641,169.259 438.641,168.425 437.5,167.5C 440.366,166.792 443.2,166.125 446,165.5C 447.073,166.28 448.24,166.113 449.5,165C 447.699,164.683 447.366,164.016 448.5,163C 446.586,161.587 445.253,159.753 444.5,157.5C 443.624,156.749 442.624,156.249 441.5,156C 443.803,154.876 445.803,153.376 447.5,151.5C 459.807,175.757 467.474,201.424 470.5,228.5C 469.778,228.918 469.278,229.584 469,230.5C 468.489,228.122 467.822,225.788 467,223.5C 466,223.5 465,223.5 464,223.5C 463.207,219.577 463.374,215.744 464.5,212C 463.365,211.251 462.365,211.417 461.5,212.5C 461.709,213.086 462.043,213.586 462.5,214C 454.173,214.5 445.84,214.666 437.5,214.5C 437.767,207.681 435.6,206.681 431,211.5C 430.667,208.5 430.333,205.5 430,202.5C 429.583,201.244 428.75,200.577 427.5,200.5C 429.629,194.091 427.462,189.757 421,187.5C 412.857,189.301 410.524,193.967 414,201.5C 415.145,202.636 416.312,203.636 417.5,204.5C 415.789,206.592 413.623,208.259 411,209.5C 410.517,208.552 410.351,207.552 410.5,206.5C 406.429,206.234 402.429,206.567 398.5,207.5C 397.005,204.355 397.338,201.522 399.5,199C 395.911,198.793 392.411,198.293 389,197.5C 388.5,198 388,198.5 387.5,199C 388.167,203.667 388.833,208.333 389.5,213C 389.54,219.024 389.374,225.19 389,231.5C 388.626,232.416 388.126,233.25 387.5,234C 383.833,234.333 380.167,234.667 376.5,235C 374.616,236.049 373.282,237.549 372.5,239.5C 369.73,237.634 368.23,234.968 368,231.5C 367.768,190.158 367.268,148.824 366.5,107.5C 367.08,103.351 366.414,99.6843 364.5,96.5C 362.402,97.9143 361.402,97.2476 361.5,94.5C 356.238,94.8047 351.072,94.4714 346,93.5C 342.81,96.7877 341.31,96.121 341.5,91.5C 341.649,89.6803 342.316,88.1803 343.5,87C 340.833,84.3333 340.833,81.6667 343.5,79C 337.509,78.5005 331.509,78.3338 325.5,78.5C 325.042,75.6062 325.709,73.1062 327.5,71C 325.862,68.8665 325.029,66.3665 325,63.5C 318.712,61.3789 316.212,63.7122 317.5,70.5C 314.833,70.5 312.167,70.5 309.5,70.5C 309.169,78.5277 309.502,86.5277 310.5,94.5C 311.167,94.8333 311.833,95.1667 312.5,95.5C 313.208,92.6336 313.875,89.8003 314.5,87C 316.167,86.3333 317.833,86.3333 319.5,87C 317.553,94.5581 316.886,102.391 317.5,110.5C 320.731,111.181 324.064,111.348 327.5,111C 325.857,116.119 324.857,121.452 324.5,127C 330.781,126.465 337.115,126.465 343.5,127C 341.709,129.106 341.042,131.606 341.5,134.5C 340.167,134.5 338.833,134.5 337.5,134.5C 332.167,134.5 326.833,134.5 321.5,134.5C 321.478,130.407 320.811,126.407 319.5,122.5C 320.336,119.72 321.003,117.22 321.5,115C 319.833,114.667 318.167,114.333 316.5,114C 317.5,113.667 318.5,113.333 319.5,113C 317.667,112.5 316.5,111.333 316,109.5C 314.301,110.406 312.467,110.739 310.5,110.5C 310.649,109.448 310.483,108.448 310,107.5C 308.601,108.227 307.101,108.727 305.5,109C 306.167,109.333 306.833,109.667 307.5,110C 305.992,111.507 304.659,113.173 303.5,115C 304.071,116.205 304.738,117.372 305.5,118.5C 306.167,118.167 306.833,117.833 307.5,117.5C 311.717,118.08 314.05,120.08 314.5,123.5C 315.251,122.624 315.751,121.624 316,120.5C 316.5,121 317,121.5 317.5,122C 317.437,126.16 316.771,130.16 315.5,134C 317.029,135.95 318.196,138.117 319,140.5C 320.84,139.167 321.34,139.334 320.5,141C 322.384,141.216 324.051,141.883 325.5,143C 324.729,144.998 325.395,146.665 327.5,148C 326.224,150.724 325.558,153.724 325.5,157C 323.954,164.121 326.621,167.288 333.5,166.5C 333.5,171.833 333.5,177.167 333.5,182.5C 330.881,182.768 328.381,182.435 326,181.5C 325.716,186.648 325.882,191.815 326.5,197C 326.072,199.629 325.072,201.962 323.5,204C 325.107,205.049 325.773,206.549 325.5,208.5C 317.699,209.628 317.699,210.294 325.5,210.5C 325.168,222.851 325.501,235.185 326.5,247.5C 328.409,246.652 330.409,246.318 332.5,246.5C 332.338,244.473 332.505,242.473 333,240.5C 334.974,240.647 336.974,240.981 339,241.5C 344.361,238.967 349.528,239.3 354.5,242.5C 349.015,243.327 343.348,243.827 337.5,244C 336.663,245.011 336.33,246.178 336.5,247.5C 342.842,247.334 349.175,247.5 355.5,248C 358.762,250.592 361.262,253.759 363,257.5C 363.5,270.496 363.667,283.496 363.5,296.5C 364.833,296.5 366.167,296.5 367.5,296.5C 364.725,296.879 362.725,298.379 361.5,301C 362.533,303.771 363.2,306.937 363.5,310.5C 366.881,310.46 370.214,310.793 373.5,311.5C 373.5,313.833 373.5,316.167 373.5,318.5C 370.881,318.768 368.381,318.435 366,317.5C 365.5,318 365,318.5 364.5,319C 365.435,321.381 365.768,323.881 365.5,326.5C 358.501,326.694 351.834,326.36 345.5,325.5C 344.281,326.646 342.948,327.646 341.5,328.5C 342.416,330.784 341.416,331.951 338.5,332C 341.544,332.359 341.878,333.026 339.5,334C 339.704,336.621 339.704,339.455 339.5,342.5C 338.448,342.351 337.448,342.517 336.5,343C 337.471,348.072 337.805,353.238 337.5,358.5C 344.185,358.604 350.685,358.938 357,359.5C 357.498,356.518 357.665,353.518 357.5,350.5C 356.167,350.5 354.833,350.5 353.5,350.5C 353.5,349.167 353.5,347.833 353.5,346.5C 354.833,346.5 356.167,346.5 357.5,346.5C 357.36,344.876 358.027,343.71 359.5,343C 364.833,342.333 370.167,342.333 375.5,343C 373.679,345.456 373.012,348.289 373.5,351.5C 374.833,351.5 376.167,351.5 377.5,351.5C 377.5,353.833 377.5,356.167 377.5,358.5C 378.978,358.238 380.311,358.571 381.5,359.5C 380.167,360.5 380.167,361.5 381.5,362.5C 386.682,363.776 386.682,364.443 381.5,364.5C 381.188,371.422 381.521,378.256 382.5,385C 381.689,389.597 381.022,393.93 380.5,398C 382.18,398.347 383.18,399.347 383.5,401C 382.115,402.597 381.449,404.43 381.5,406.5C 376.275,406.666 371.941,406 368.5,404.5C 375.144,399.252 375.144,393.919 368.5,388.5C 367.668,379.852 367.168,371.186 367,362.5C 365.623,358.735 364.623,359.068 364,363.5C 363.832,371.853 363.332,380.187 362.5,388.5C 356.723,392.826 356.057,397.826 360.5,403.5C 357.205,405.598 353.872,406.932 350.5,407.5C 349.005,404.355 349.338,401.522 351.5,399C 348.833,396.333 348.833,393.667 351.5,391C 345.167,390.333 338.833,390.333 332.5,391C 333.435,393.381 333.768,395.881 333.5,398.5C 327.824,398.334 322.157,398.501 316.5,399C 317.435,401.381 317.768,403.881 317.5,406.5C 314.833,406.5 312.167,406.5 309.5,406.5C 309.674,413.535 309.341,420.535 308.5,427.5C 306.533,427.739 304.699,427.406 303,426.5C 302.821,422.975 302.321,419.641 301.5,416.5C 301.256,411.933 300.09,407.599 298,403.5C 297.333,401.5 297.333,399.5 298,397.5C 301,393.167 304.667,389.5 309,386.5C 312.1,382.46 312.267,378.293 309.5,374C 304.988,372.364 300.322,371.364 295.5,371C 301.256,368.484 307.256,366.818 313.5,366C 317.031,364.471 319.031,361.804 319.5,358C 317.304,352.717 315.971,347.217 315.5,341.5C 315.242,336.516 317.242,332.683 321.5,330C 327.5,327.333 333.5,324.667 339.5,322C 347.796,315.378 348.63,307.878 342,299.5C 328.536,280.244 316.869,259.911 307,238.5C 306.333,234.167 306.333,229.833 307,225.5C 313.259,214.059 317.092,201.893 318.5,189C 316.995,168.8 313.495,148.967 308,129.5C 292.111,87.4811 261.944,63.4811 217.5,57.5C 211.355,56.5098 205.022,56.1765 198.5,56.5C 198.826,48.3159 198.492,40.3159 197.5,32.5C 285.336,15.7786 359.003,40.7786 418.5,107.5 Z"/></g>
<g><path style="opacity:1" fill="#51708c" d="M 364.5,96.5 C 366.414,99.6843 367.08,103.351 366.5,107.5C 365.833,107.167 365.167,106.833 364.5,106.5C 364.5,103.167 364.5,99.8333 364.5,96.5 Z"/></g>
<g><path style="opacity:1" fill="#002645" d="M 364.5,96.5 C 364.5,99.8333 364.5,103.167 364.5,106.5C 364.828,118.678 364.495,130.678 363.5,142.5C 362.872,169.022 362.206,193.022 361.5,214.5C 360.167,214.5 358.833,214.5 357.5,214.5C 358.789,203.558 358.123,192.891 355.5,182.5C 353.994,181.77 352.66,181.437 351.5,181.5C 352.729,180.719 354.062,180.219 355.5,180C 353.893,178.951 353.227,177.451 353.5,175.5C 352.167,175.5 350.833,175.5 349.5,175.5C 349.5,174.5 349.5,173.5 349.5,172.5C 354.833,172.167 354.833,171.833 349.5,171.5C 349.227,169.549 349.893,168.049 351.5,167C 348.571,166.223 345.737,166.39 343,167.5C 341.907,158.663 341.074,149.83 340.5,141C 340.833,140.667 341.167,140.333 341.5,140C 340.167,139.667 338.833,139.333 337.5,139C 342.794,138.182 342.794,137.682 337.5,137.5C 337.5,136.5 337.5,135.5 337.5,134.5C 338.833,134.5 340.167,134.5 341.5,134.5C 341.042,131.606 341.709,129.106 343.5,127C 337.115,126.465 330.781,126.465 324.5,127C 324.857,121.452 325.857,116.119 327.5,111C 324.064,111.348 320.731,111.181 317.5,110.5C 316.886,102.391 317.553,94.5581 319.5,87C 317.833,86.3333 316.167,86.3333 314.5,87C 313.875,89.8003 313.208,92.6336 312.5,95.5C 311.833,95.1667 311.167,94.8333 310.5,94.5C 309.502,86.5277 309.169,78.5277 309.5,70.5C 312.167,70.5 314.833,70.5 317.5,70.5C 316.212,63.7122 318.712,61.3789 325,63.5C 325.029,66.3665 325.862,68.8665 327.5,71C 325.709,73.1062 325.042,75.6062 325.5,78.5C 331.509,78.3338 337.509,78.5005 343.5,79C 340.833,81.6667 340.833,84.3333 343.5,87C 342.316,88.1803 341.649,89.6803 341.5,91.5C 341.31,96.121 342.81,96.7877 346,93.5C 351.072,94.4714 356.238,94.8047 361.5,94.5C 361.402,97.2476 362.402,97.9143 364.5,96.5 Z"/></g>
<g><path style="opacity:1" fill="#03243e" d="M 245.5,168.5 C 256.618,166.974 264.451,171.308 269,181.5C 270.492,198.005 262.992,206.172 246.5,206C 231.833,199.151 228.333,188.651 236,174.5C 238.843,171.837 242.009,169.837 245.5,168.5 Z"/></g>
<g><path style="opacity:1" fill="#01203c" d="M 112.5,186.5 C 111.85,186.804 111.183,187.137 110.5,187.5C 109.501,197.812 109.168,208.145 109.5,218.5C 108.502,248.662 108.169,278.995 108.5,309.5C 102.833,309.5 97.1667,309.5 91.5,309.5C 91.5,268.833 91.5,228.167 91.5,187.5C 93.1238,187.36 94.2904,188.027 95,189.5C 95.8388,188.376 97.0055,187.709 98.5,187.5C 102.146,188.051 101.812,188.385 97.5,188.5C 97.5,191.833 97.5,195.167 97.5,198.5C 98.8333,198.5 100.167,198.5 101.5,198.5C 101.693,194.551 102.193,194.551 103,198.5C 104.147,197.542 105.147,197.875 106,199.5C 105.654,195.519 106.154,191.519 107.5,187.5C 109.208,186.008 110.875,185.675 112.5,186.5 Z"/></g>
<g><path style="opacity:1" fill="#f6fbfc" d="M 427.5,200.5 C 425.109,203.917 421.775,205.25 417.5,204.5C 416.312,203.636 415.145,202.636 414,201.5C 410.524,193.967 412.857,189.301 421,187.5C 427.462,189.757 429.629,194.091 427.5,200.5 Z"/></g>
<g><path style="opacity:1" fill="#04233c" d="M 153.5,310.5 C 153.5,311.5 153.5,312.5 153.5,313.5C 160.558,313.203 167.558,313.536 174.5,314.5C 176.258,313.872 177.758,312.872 179,311.5C 179.226,308.905 179.726,306.405 180.5,304C 179.022,300.16 179.355,296.494 181.5,293C 181.241,291.739 180.574,290.739 179.5,290C 182.894,287.54 183.394,285.04 181,282.5C 180.667,283.167 180.333,283.833 180,284.5C 179.522,281.795 178.689,279.795 177.5,278.5C 178.833,278.5 180.167,278.5 181.5,278.5C 181.042,275.606 181.709,273.106 183.5,271C 179.909,270.211 176.409,270.378 173,271.5C 173.152,268.553 173.319,265.553 173.5,262.5C 176.216,262.322 178.883,261.822 181.5,261C 183.224,260.552 183.891,259.718 183.5,258.5C 184.854,260.184 186.521,260.684 188.5,260C 188.974,258.271 189.974,257.105 191.5,256.5C 200.908,258.243 206.241,263.91 207.5,273.5C 206.663,281.174 202.829,286.841 196,290.5C 195.5,297.826 195.334,305.159 195.5,312.5C 206.505,312.333 217.505,312.5 228.5,313C 232.796,317.515 233.63,322.681 231,328.5C 230.5,330.333 229.333,331.5 227.5,332C 201.167,332.667 174.833,332.667 148.5,332C 139.166,328.665 133.333,322.165 131,312.5C 130.333,275.5 130.333,238.5 131,201.5C 134.276,189.89 141.776,182.723 153.5,180C 167.496,179.5 181.496,179.333 195.5,179.5C 195.333,162.497 195.5,145.497 196,128.5C 202.076,127.524 208.242,127.19 214.5,127.5C 214.667,150.836 214.5,174.169 214,197.5C 213.5,198 213,198.5 212.5,199C 194.167,199.333 175.833,199.667 157.5,200C 153.942,201.892 151.442,204.725 150,208.5C 149.333,240.5 149.333,272.5 150,304.5C 150.6,306.91 151.766,308.91 153.5,310.5 Z"/></g>
<g><path style="opacity:1" fill="#012541" d="M 195.5,179.5 C 198.064,181.042 200.564,182.042 203,182.5C 204.167,181.333 205.333,180.167 206.5,179C 205,176.833 205.5,175.333 208,174.5C 209.52,175.697 210.687,177.197 211.5,179C 210.346,179.914 210.513,180.747 212,181.5C 212.495,183.473 212.662,185.473 212.5,187.5C 207.5,187.5 202.5,187.5 197.5,187.5C 196.115,192.813 198.115,195.313 203.5,195C 193.234,196.572 182.901,197.405 172.5,197.5C 167.064,197.694 163.731,197.361 162.5,196.5C 162.382,193.75 161.049,191.75 158.5,190.5C 157.526,188.257 157.192,185.924 157.5,183.5C 156.022,183.762 154.689,183.429 153.5,182.5C 153.667,182.167 153.833,181.833 154,181.5C 156.234,181.374 158.568,181.707 161,182.5C 161.5,182 162,181.5 162.5,181C 173.674,180.83 184.674,180.33 195.5,179.5 Z"/></g>
<g><path style="opacity:1" fill="#002643" d="M 417.5,204.5 C 421.775,205.25 425.109,203.917 427.5,200.5C 428.75,200.577 429.583,201.244 430,202.5C 430.333,205.5 430.667,208.5 431,211.5C 435.6,206.681 437.767,207.681 437.5,214.5C 445.84,214.666 454.173,214.5 462.5,214C 462.043,213.586 461.709,213.086 461.5,212.5C 462.365,211.417 463.365,211.251 464.5,212C 463.374,215.744 463.207,219.577 464,223.5C 465,223.5 466,223.5 467,223.5C 467.822,225.788 468.489,228.122 469,230.5C 469.278,229.584 469.778,228.918 470.5,228.5C 471.833,242.5 471.833,256.5 470.5,270.5C 467.966,270.386 465.299,270.719 462.5,271.5C 461.682,274.107 461.182,276.774 461,279.5C 456.667,278.833 452.333,278.167 448,277.5C 447.692,278.308 447.192,278.975 446.5,279.5C 445.682,276.893 445.182,274.226 445,271.5C 442.619,270.565 440.119,270.232 437.5,270.5C 437.768,267.881 437.435,265.381 436.5,263C 431.913,262.201 427.413,262.368 423,263.5C 422.255,262.01 421.088,261.01 419.5,260.5C 418.558,261.807 416.891,263.141 414.5,264.5C 413.24,266.353 413.24,268.186 414.5,270C 412.866,270.494 411.199,270.66 409.5,270.5C 409.107,281.591 408.941,292.258 409,302.5C 406.42,303.568 403.587,303.735 400.5,303C 400.543,305.5 400.877,308 401.5,310.5C 403.604,310.201 405.604,310.534 407.5,311.5C 406.833,312.167 406.167,312.833 405.5,313.5C 407.184,316.612 407.85,319.946 407.5,323.5C 412.605,325.621 417.939,327.454 423.5,329C 420.456,329.359 420.122,330.026 422.5,331C 421.167,332 421.167,333 422.5,334C 426.778,334.626 430.945,334.126 435,332.5C 439.248,332.603 439.414,333.103 435.5,334C 438.482,334.498 441.482,334.665 444.5,334.5C 445.092,331.873 445.425,329.206 445.5,326.5C 448.85,326.335 452.183,326.502 455.5,327C 454.833,327.333 454.167,327.667 453.5,328C 454.833,328.667 454.833,329.333 453.5,330C 454.032,332.463 455.366,334.297 457.5,335.5C 440.685,378.189 414.018,413.189 377.5,440.5C 375.683,440.317 373.85,440.317 372,440.5C 368.951,443.981 365.784,446.647 362.5,448.5C 361.833,447.5 361.167,446.5 360.5,445.5C 359.205,446.098 357.872,446.598 356.5,447C 359.723,451.407 358.723,452.574 353.5,450.5C 350.398,450.497 350.065,450.997 352.5,452C 350.711,452.914 348.877,453.747 347,454.5C 345.893,454.415 344.893,454.081 344,453.5C 342.944,455.129 341.444,456.462 339.5,457.5C 340.503,462.697 340.003,462.697 338,457.5C 337.712,461.174 336.212,462.007 333.5,460C 327.02,459.421 327.02,460.088 333.5,462C 332.833,462.333 332.167,462.667 331.5,463C 319.519,462.525 307.519,462.525 295.5,463C 292.879,466.325 289.546,467.658 285.5,467C 287.991,466.374 287.991,465.541 285.5,464.5C 286.025,463.808 286.692,463.308 287.5,463C 284.833,462.333 282.167,462.333 279.5,463C 277.753,467.531 276.92,472.365 277,477.5C 276,476.167 275,476.167 274,477.5C 273.667,476.167 273.333,474.833 273,473.5C 272.667,474.167 272.333,474.833 272,475.5C 268.281,474.693 264.614,474.36 261,474.5C 260.333,475.833 259.667,477.167 259,478.5C 258.147,476.875 257.147,476.542 256,477.5C 252.984,472.696 252.817,467.862 255.5,463C 245.679,462.553 236.012,462.22 226.5,462C 227.167,461.333 227.833,460.667 228.5,460C 227.601,458.348 226.601,456.848 225.5,455.5C 229.453,450.847 234.453,447.68 240.5,446C 253.832,446.063 267.165,446.063 280.5,446C 295.941,442.313 302.941,432.48 301.5,416.5C 302.321,419.641 302.821,422.975 303,426.5C 304.699,427.406 306.533,427.739 308.5,427.5C 309.341,420.535 309.674,413.535 309.5,406.5C 312.167,406.5 314.833,406.5 317.5,406.5C 317.768,403.881 317.435,401.381 316.5,399C 322.157,398.501 327.824,398.334 333.5,398.5C 333.768,395.881 333.435,393.381 332.5,391C 338.833,390.333 345.167,390.333 351.5,391C 348.833,393.667 348.833,396.333 351.5,399C 349.338,401.522 349.005,404.355 350.5,407.5C 353.872,406.932 357.205,405.598 360.5,403.5C 363.096,404.265 365.763,404.599 368.5,404.5C 371.941,406 376.275,406.666 381.5,406.5C 381.449,404.43 382.115,402.597 383.5,401C 383.18,399.347 382.18,398.347 380.5,398C 381.022,393.93 381.689,389.597 382.5,385C 381.521,378.256 381.188,371.422 381.5,364.5C 386.682,364.443 386.682,363.776 381.5,362.5C 380.167,361.5 380.167,360.5 381.5,359.5C 380.311,358.571 378.978,358.238 377.5,358.5C 377.5,356.167 377.5,353.833 377.5,351.5C 376.167,351.5 374.833,351.5 373.5,351.5C 373.012,348.289 373.679,345.456 375.5,343C 370.167,342.333 364.833,342.333 359.5,343C 358.027,343.71 357.36,344.876 357.5,346.5C 356.167,346.5 354.833,346.5 353.5,346.5C 353.5,347.833 353.5,349.167 353.5,350.5C 354.833,350.5 356.167,350.5 357.5,350.5C 357.665,353.518 357.498,356.518 357,359.5C 350.685,358.938 344.185,358.604 337.5,358.5C 337.805,353.238 337.471,348.072 336.5,343C 337.448,342.517 338.448,342.351 339.5,342.5C 339.704,339.455 339.704,336.621 339.5,334C 341.878,333.026 341.544,332.359 338.5,332C 341.416,331.951 342.416,330.784 341.5,328.5C 342.948,327.646 344.281,326.646 345.5,325.5C 351.834,326.36 358.501,326.694 365.5,326.5C 365.768,323.881 365.435,321.381 364.5,319C 365,318.5 365.5,318 366,317.5C 368.381,318.435 370.881,318.768 373.5,318.5C 373.5,316.167 373.5,313.833 373.5,311.5C 370.214,310.793 366.881,310.46 363.5,310.5C 363.2,306.937 362.533,303.771 361.5,301C 362.725,298.379 364.725,296.879 367.5,296.5C 367.054,282.76 367.554,269.093 369,255.5C 370.833,252.333 373.333,249.833 376.5,248C 384.159,247.5 391.826,247.334 399.5,247.5C 399.5,246.167 399.5,244.833 399.5,243.5C 392.159,243.666 384.826,243.5 377.5,243C 375.119,242.777 373.453,241.61 372.5,239.5C 373.282,237.549 374.616,236.049 376.5,235C 380.167,234.667 383.833,234.333 387.5,234C 388.126,233.25 388.626,232.416 389,231.5C 389.374,225.19 389.54,219.024 389.5,213C 388.833,208.333 388.167,203.667 387.5,199C 388,198.5 388.5,198 389,197.5C 392.411,198.293 395.911,198.793 399.5,199C 397.338,201.522 397.005,204.355 398.5,207.5C 402.429,206.567 406.429,206.234 410.5,206.5C 410.351,207.552 410.517,208.552 411,209.5C 413.623,208.259 415.789,206.592 417.5,204.5 Z"/></g>
<g><path style="opacity:1" fill="#032037" d="M 34.5,197.5 C 45.505,197.333 56.505,197.5 67.5,198C 68.3333,198.833 69.1667,199.667 70,200.5C 70.6667,205.5 70.6667,210.5 70,215.5C 69.2496,216.126 68.4162,216.626 67.5,217C 55.1712,217.5 42.8378,217.667 30.5,217.5C 30.8179,210.595 32.1512,203.928 34.5,197.5 Z"/></g>
<g><path style="opacity:1" fill="#04243a" d="M 179.5,214.5 C 196.201,213.349 202.367,220.682 198,236.5C 191.951,243.472 184.784,244.972 176.5,241C 169.989,234.749 168.823,227.582 173,219.5C 174.965,217.45 177.132,215.783 179.5,214.5 Z"/></g>
<g><path style="opacity:1" fill="#05233b" d="M 269.5,224.5 C 274.6,224.429 279.6,225.096 284.5,226.5C 277.812,233.061 274.978,241.061 276,250.5C 274.332,254.165 271.499,256.332 267.5,257C 264.167,257.667 260.833,257.667 257.5,257C 249.721,253.132 241.721,249.966 233.5,247.5C 242.65,235.265 254.65,227.598 269.5,224.5 Z"/></g>
<g><path style="opacity:1" fill="#02233c" d="M 42.5,238.5 C 62.3754,237.541 71.5421,246.874 70,266.5C 64.0537,280.886 53.5537,285.72 38.5,281C 24.8973,271.006 22.8973,259.006 32.5,245C 35.7278,242.56 39.0611,240.394 42.5,238.5 Z"/></g>
<g><path style="opacity:1" fill="#aec7da" d="M 433.5,243.5 C 444.014,243.172 454.347,243.506 464.5,244.5C 455.475,244.168 446.475,244.502 437.5,245.5C 446.141,246.498 454.808,246.831 463.5,246.5C 450.294,247.805 436.961,247.805 423.5,246.5C 426.548,244.881 429.881,243.881 433.5,243.5 Z"/></g>
<g><path style="opacity:1" fill="#f8fefe" d="M 464.5,244.5 C 464.672,245.492 464.338,246.158 463.5,246.5C 454.808,246.831 446.141,246.498 437.5,245.5C 446.475,244.502 455.475,244.168 464.5,244.5 Z"/></g>
<g><path style="opacity:1" fill="#2f5472" d="M 433.5,243.5 C 429.881,243.881 426.548,244.881 423.5,246.5C 419.952,246.905 416.619,246.405 413.5,245C 420.103,243.726 426.77,243.226 433.5,243.5 Z"/></g>
<g><path style="opacity:1" fill="#02253f" d="M 470.5,270.5 C 469.626,292.869 465.293,314.535 457.5,335.5C 455.366,334.297 454.032,332.463 453.5,330C 454.833,329.333 454.833,328.667 453.5,328C 454.167,327.667 454.833,327.333 455.5,327C 452.183,326.502 448.85,326.335 445.5,326.5C 445.425,329.206 445.092,331.873 444.5,334.5C 441.482,334.665 438.482,334.498 435.5,334C 439.414,333.103 439.248,332.603 435,332.5C 430.945,334.126 426.778,334.626 422.5,334C 421.167,333 421.167,332 422.5,331C 420.122,330.026 420.456,329.359 423.5,329C 417.939,327.454 412.605,325.621 407.5,323.5C 407.85,319.946 407.184,316.612 405.5,313.5C 406.167,312.833 406.833,312.167 407.5,311.5C 405.604,310.534 403.604,310.201 401.5,310.5C 400.877,308 400.543,305.5 400.5,303C 403.587,303.735 406.42,303.568 409,302.5C 408.941,292.258 409.107,281.591 409.5,270.5C 411.199,270.66 412.866,270.494 414.5,270C 413.24,268.186 413.24,266.353 414.5,264.5C 416.891,263.141 418.558,261.807 419.5,260.5C 421.088,261.01 422.255,262.01 423,263.5C 427.413,262.368 431.913,262.201 436.5,263C 437.435,265.381 437.768,267.881 437.5,270.5C 440.119,270.232 442.619,270.565 445,271.5C 445.182,274.226 445.682,276.893 446.5,279.5C 447.192,278.975 447.692,278.308 448,277.5C 452.333,278.167 456.667,278.833 461,279.5C 461.182,276.774 461.682,274.107 462.5,271.5C 465.299,270.719 467.966,270.386 470.5,270.5 Z"/></g>
<g><path style="opacity:1" fill="#042336" d="M 191.5,256.5 C 189.974,257.105 188.974,258.271 188.5,260C 186.521,260.684 184.854,260.184 183.5,258.5C 183.891,259.718 183.224,260.552 181.5,261C 178.883,261.822 176.216,262.322 173.5,262.5C 173.319,265.553 173.152,268.553 173,271.5C 176.409,270.378 179.909,270.211 183.5,271C 181.709,273.106 181.042,275.606 181.5,278.5C 180.167,278.5 178.833,278.5 177.5,278.5C 178.689,279.795 179.522,281.795 180,284.5C 180.333,283.833 180.667,283.167 181,282.5C 183.394,285.04 182.894,287.54 179.5,290C 180.574,290.739 181.241,291.739 181.5,293C 179.355,296.494 179.022,300.16 180.5,304C 179.726,306.405 179.226,308.905 179,311.5C 177.758,312.872 176.258,313.872 174.5,314.5C 167.558,313.536 160.558,313.203 153.5,313.5C 153.5,312.5 153.5,311.5 153.5,310.5C 154.473,310.987 155.473,311.487 156.5,312C 163.158,312.5 169.825,312.666 176.5,312.5C 176.666,304.826 176.5,297.159 176,289.5C 169.071,283.71 166.737,276.376 169,267.5C 173.859,257.985 181.359,254.318 191.5,256.5 Z"/></g>
<g><path style="opacity:1" fill="#63889d" d="M 420.5,276.5 C 419.833,276.5 419.167,276.5 418.5,276.5C 419.167,269.833 419.833,269.833 420.5,276.5 Z"/></g>
<g><path style="opacity:1" fill="#010a1c" d="M 109.5,218.5 C 109.5,249.167 109.5,279.833 109.5,310.5C 103.5,310.5 97.5,310.5 91.5,310.5C 91.5,310.167 91.5,309.833 91.5,309.5C 97.1667,309.5 102.833,309.5 108.5,309.5C 108.169,278.995 108.502,248.662 109.5,218.5 Z"/></g>
<g><path style="opacity:1" fill="#f2f7f9" d="M 418.5,276.5 C 419.167,276.5 419.833,276.5 420.5,276.5C 421.33,287.326 421.83,298.326 422,309.5C 427.902,312.292 429.569,316.625 427,322.5C 422.997,327.42 418.663,327.753 414,323.5C 411.128,317.547 412.461,312.88 418,309.5C 418.5,298.505 418.667,287.505 418.5,276.5 Z"/></g>
<g><path style="opacity:1" fill="#04233b" d="M 251.5,310.5 C 265.212,309.369 270.379,315.369 267,328.5C 259.181,336.759 251.847,336.425 245,327.5C 242.667,319.919 244.833,314.252 251.5,310.5 Z"/></g>
<g><path style="opacity:1" fill="#0e2c3f" d="M 32.5,306.5 C 38.9522,306.084 45.2855,306.584 51.5,308C 57.222,315.284 56.5554,321.95 49.5,328C 46.5,328.667 43.5,328.667 40.5,328C 35.1732,321.856 32.5066,314.69 32.5,306.5 Z"/></g>
<g><path style="opacity:1" fill="#012644" d="M 45.5,307.5 C 47.9418,307.119 48.6085,307.786 47.5,309.5C 48.4829,313.581 50.4829,317.081 53.5,320C 50.9595,321.04 49.2929,322.874 48.5,325.5C 44.0153,327.115 40.6819,325.782 38.5,321.5C 37.2309,319.305 37.2309,317.139 38.5,315C 37.8333,314 37.1667,313 36.5,312C 37.3366,310.989 37.67,309.822 37.5,308.5C 40.3854,308.806 43.0521,308.473 45.5,307.5 Z"/></g>
<g><path style="opacity:1" fill="#04253f" d="M 86.5,323.5 C 108.172,322.677 119.339,333.01 120,354.5C 115.592,371.802 104.426,379.302 86.5,377C 69.2589,370.017 63.0923,357.517 68,339.5C 72.2169,331.774 78.3835,326.441 86.5,323.5 Z"/></g>
<g><path style="opacity:1" fill="#f5f9fa" d="M 88.5,340.5 C 102.377,339.85 106.377,345.683 100.5,358C 88.6619,363.156 83.1619,359.322 84,346.5C 85.332,344.34 86.832,342.34 88.5,340.5 Z"/></g>
<g><path style="opacity:1" fill="#233e4e" d="M 134.5,354.5 C 170.664,353.336 206.998,353.169 243.5,354C 245.653,357.103 246.653,360.603 246.5,364.5C 246.684,367.205 246.017,369.538 244.5,371.5C 245.046,365.933 244.379,360.6 242.5,355.5C 206.506,354.5 170.506,354.167 134.5,354.5 Z"/></g>
<g><path style="opacity:1" fill="#04223b" d="M 264.5,351.5 C 274.23,349.115 281.063,352.449 285,361.5C 286.563,368.48 284.396,373.98 278.5,378C 263.642,382.333 256.142,376.833 256,361.5C 257.687,357.084 260.52,353.751 264.5,351.5 Z"/></g>
<g><path style="opacity:1" fill="#02233d" d="M 134.5,354.5 C 170.506,354.167 206.506,354.5 242.5,355.5C 244.379,360.6 245.046,365.933 244.5,371.5C 243.942,372.79 242.942,373.623 241.5,374C 233.173,374.5 224.84,374.666 216.5,374.5C 216.5,383.167 216.5,391.833 216.5,400.5C 230.837,400.333 245.171,400.5 259.5,401C 263.138,406.402 263.471,412.069 260.5,418C 236.254,419.314 211.921,419.981 187.5,420C 179.783,433.699 168.783,437.365 154.5,431C 140.594,417.503 141.261,404.837 156.5,393C 167.119,388.988 176.452,390.988 184.5,399C 188.821,399.499 193.154,399.666 197.5,399.5C 197.5,390.833 197.5,382.167 197.5,373.5C 176.497,373.667 155.497,373.5 134.5,373C 133.333,372.5 132.5,371.667 132,370.5C 131.333,365.833 131.333,361.167 132,356.5C 132.708,355.619 133.542,354.953 134.5,354.5 Z"/></g>
<g><path style="opacity:1" fill="#f0f5f7" d="M 368.5,404.5 C 365.763,404.599 363.096,404.265 360.5,403.5C 356.057,397.826 356.723,392.826 362.5,388.5C 363.332,380.187 363.832,371.853 364,363.5C 364.623,359.068 365.623,358.735 367,362.5C 367.168,371.186 367.668,379.852 368.5,388.5C 375.144,393.919 375.144,399.252 368.5,404.5 Z"/></g>
<g><path style="opacity:1" fill="#092a41" d="M 95.5,399.5 C 105.506,399.334 115.506,399.5 125.5,400C 126,400.5 126.5,401 127,401.5C 127.784,406.887 127.618,412.22 126.5,417.5C 125.975,418.192 125.308,418.692 124.5,419C 116.833,419.667 109.167,419.667 101.5,419C 97.0293,415.571 93.3626,411.405 90.5,406.5C 91.8037,403.87 93.4704,401.537 95.5,399.5 Z"/></g>
<g><path style="opacity:1" fill="#17394a" d="M 139.5,448.5 C 145.833,448.5 152.167,448.5 158.5,448.5C 158.826,452.884 158.492,457.217 157.5,461.5C 150.658,458.103 144.658,453.77 139.5,448.5 Z"/></g>
<g><path style="opacity:1" fill="#031e3b" d="M 184.5,447.5 C 196.998,448.164 201.498,454.497 198,466.5C 192.874,472.996 186.708,474.163 179.5,470C 175.758,465.483 174.591,460.316 176,454.5C 178.217,451.323 181.05,448.989 184.5,447.5 Z"/></g>
<g><path style="opacity:1" fill="#04243b" d="M 377.5,440.5 C 330.001,474.623 277.001,487.623 218.5,479.5C 218.082,470.634 220.415,462.634 225.5,455.5C 226.601,456.848 227.601,458.348 228.5,460C 227.833,460.667 227.167,461.333 226.5,462C 236.012,462.22 245.679,462.553 255.5,463C 252.817,467.862 252.984,472.696 256,477.5C 257.147,476.542 258.147,476.875 259,478.5C 259.667,477.167 260.333,475.833 261,474.5C 264.614,474.36 268.281,474.693 272,475.5C 272.333,474.833 272.667,474.167 273,473.5C 273.333,474.833 273.667,476.167 274,477.5C 275,476.167 276,476.167 277,477.5C 276.92,472.365 277.753,467.531 279.5,463C 282.167,462.333 284.833,462.333 287.5,463C 286.692,463.308 286.025,463.808 285.5,464.5C 287.991,465.541 287.991,466.374 285.5,467C 289.546,467.658 292.879,466.325 295.5,463C 307.519,462.525 319.519,462.525 331.5,463C 332.167,462.667 332.833,462.333 333.5,462C 327.02,460.088 327.02,459.421 333.5,460C 336.212,462.007 337.712,461.174 338,457.5C 340.003,462.697 340.503,462.697 339.5,457.5C 341.444,456.462 342.944,455.129 344,453.5C 344.893,454.081 345.893,454.415 347,454.5C 348.877,453.747 350.711,452.914 352.5,452C 350.065,450.997 350.398,450.497 353.5,450.5C 358.723,452.574 359.723,451.407 356.5,447C 357.872,446.598 359.205,446.098 360.5,445.5C 361.167,446.5 361.833,447.5 362.5,448.5C 365.784,446.647 368.951,443.981 372,440.5C 373.85,440.317 375.683,440.317 377.5,440.5 Z"/></g>
</svg>
